<svg width="124" height="123" viewBox="0 0 124 123" fill="none" xmlns="http://www.w3.org/2000/svg">
<path d="M62.4261 122.844C96.3572 122.844 123.864 95.3463 123.864 61.4259C123.864 27.5055 96.3572 0.00762939 62.4261 0.00762939C28.4951 0.00762939 0.988464 27.5055 0.988464 61.4259C0.988464 95.3463 28.4951 122.844 62.4261 122.844Z" fill="#E6E6E6"/>
<path d="M56.3831 26.186C60.2768 26.186 63.4333 23.0305 63.4333 19.138C63.4333 15.2455 60.2768 12.09 56.3831 12.09C52.4894 12.09 49.3329 15.2455 49.3329 19.138C49.3329 23.0305 52.4894 26.186 56.3831 26.186Z" fill="#CBCBCB"/>
<path d="M68.4691 96.6659C72.3628 96.6659 75.5193 93.5104 75.5193 89.6179C75.5193 85.7254 72.3628 82.5699 68.4691 82.5699C64.5754 82.5699 61.4189 85.7254 61.4189 89.6179C61.4189 93.5104 64.5754 96.6659 68.4691 96.6659Z" fill="#CBCBCB"/>
<path d="M95.6628 55.3848C98.4441 55.3848 100.699 53.1309 100.699 50.3505C100.699 47.5702 98.4441 45.3162 95.6628 45.3162C92.8816 45.3162 90.627 47.5702 90.627 50.3505C90.627 53.1309 92.8816 55.3848 95.6628 55.3848Z" fill="#CBCBCB"/>
<path d="M38.254 82.57C47.1539 82.57 54.3687 75.3574 54.3687 66.4602C54.3687 57.5631 47.1539 50.3505 38.254 50.3505C29.3541 50.3505 22.1392 57.5631 22.1392 66.4602C22.1392 75.3574 29.3541 82.57 38.254 82.57Z" fill="#CBCBCB"/>
</svg>
