<svg width="440" height="325" viewBox="0 0 440 325" fill="none" xmlns="http://www.w3.org/2000/svg">
<path d="M72.2501 78.368C68.6937 93.2603 64.2012 96.805 59.9463 95.7888C55.6914 94.7727 53.2852 89.5807 56.8416 74.6884C60.398 59.7962 72.8251 41.8591 72.8251 41.8591C72.8251 41.8591 75.8065 63.4757 72.2501 78.368Z" fill="#4A79F3"/>
<path d="M10.4526 275.797C8.28252 284.884 5.54123 287.046 2.9449 286.426C0.348567 285.806 -1.11964 282.638 1.05042 273.551C3.22048 264.464 10.8034 253.519 10.8034 253.519C10.8034 253.519 12.6227 266.709 10.4526 275.797Z" fill="#4A79F3"/>
<path d="M190.904 306.691C187.347 321.583 182.855 325.128 178.6 324.112C174.345 323.096 171.939 317.904 175.495 303.011C179.051 288.119 191.479 270.182 191.479 270.182C191.479 270.182 194.46 291.799 190.904 306.691Z" fill="#4A79F3"/>
<path d="M336.576 206.763C334.405 215.85 331.664 218.013 329.068 217.393C326.472 216.773 325.003 213.605 327.173 204.518C329.343 195.431 336.926 184.486 336.926 184.486C336.926 184.486 338.746 197.676 336.576 206.763Z" fill="#4A79F3"/>
<path d="M268.732 250.802C266.562 259.889 263.821 262.052 261.225 261.432C258.628 260.812 257.16 257.644 259.33 248.556C261.5 239.469 269.083 228.524 269.083 228.524C269.083 228.524 270.903 241.715 268.732 250.802Z" fill="#4A79F3"/>
<path d="M241.263 128.358C237.706 143.25 233.214 146.795 228.959 145.779C224.704 144.762 222.298 139.57 225.854 124.678C229.411 109.786 241.838 91.8489 241.838 91.8489C241.838 91.8489 244.819 113.465 241.263 128.358Z" fill="#4A79F3"/>
<path d="M256.83 22.2775C254.66 31.3647 251.919 33.5276 249.322 32.9076C246.726 32.2876 245.258 29.1194 247.428 20.0322C249.598 10.945 257.181 0 257.181 0C257.181 0 259 13.1904 256.83 22.2775Z" fill="#4A79F3"/>
<path d="M423.368 139.07C419.811 153.962 415.319 157.507 411.064 156.491C406.809 155.475 404.403 150.282 407.959 135.39C411.516 120.498 423.943 102.561 423.943 102.561C423.943 102.561 426.924 124.177 423.368 139.07Z" fill="#4A79F3"/>
<path d="M438.935 32.9896C436.765 42.0768 434.024 44.2397 431.428 43.6197C428.831 42.9997 427.363 39.8315 429.533 30.7443C431.703 21.6571 439.286 10.7121 439.286 10.7121C439.286 10.7121 441.105 23.9025 438.935 32.9896Z" fill="#4A79F3"/>
</svg>
